<?xml version="1.0" encoding="utf-8"?>
<!-- Generator: Adobe Illustrator 16.0.0, SVG Export Plug-In . SVG Version: 6.00 Build 0)  -->
<!DOCTYPE svg PUBLIC "-//W3C//DTD SVG 1.1//EN" "http://www.w3.org/Graphics/SVG/1.1/DTD/svg11.dtd">
<svg version="1.1" id="Layer_1" xmlns="http://www.w3.org/2000/svg" xmlns:xlink="http://www.w3.org/1999/xlink" x="0px" y="0px"
	 width="416.647px" height="473.001px" viewBox="0 0 416.647 473.001" enable-background="new 0 0 416.647 473.001"
	 xml:space="preserve">
<g>
	<path fill="#C12227" d="M37.876,424.962L0,0h416.647L378.77,424.962l-170.908,48.041"/>
	<path fill="#E72A43" d="M208.785,436.05l137.651-37.879l32.334-363.99H208.785"/>
</g>
<g>
	<g>
		<path fill="#FFFFFF" d="M202.708,362.042c-65.101-0.596-99.749-52.797-109.643-97.318c-2.127-9.641-2.631-19.34-2.736-22.083
			l-0.102-3.118l0.428-3.059c1.222-8.871,1.981-21.952,1.159-27.26c-2.939-19.155-1.188-34.57,5.677-49.994l0.307-0.701
			c15.302-35.753,48.664-55.153,99.134-57.602c3.571-0.183,7.238-0.276,10.879-0.276c77.789,0,103.135,43.589,110.422,62.33
			c10.434,26.841,11.999,81.958-1.523,115.547l-1.325,3.35c-5.136,12.963-12.887,32.528-29.49,49.412
			c-20.088,20.427-47.544,30.784-81.605,30.784L202.708,362.042z"/>
		<path d="M207.811,108.264c73.065,0,96.588,40.183,103.307,57.462c9.713,24.987,11.186,78.443-1.49,109.93l-1.342,3.391
			c-9.691,24.463-29.846,75.372-103.997,75.372l-1.522-0.012c-60.615-0.555-92.964-49.556-102.249-91.341
			c-2.127-9.64-2.518-19.608-2.56-20.716l-0.079-2.422l0.337-2.408c1.113-8.08,2.211-22.589,1.143-29.486
			c-2.7-17.598-1.132-31.703,5.107-45.721l0.326-0.746c14.082-32.903,45.217-50.742,92.51-53.037
			C200.859,108.349,204.386,108.264,207.811,108.264 M207.811,92.996c-3.77,0-7.568,0.097-11.29,0.287
			c-25.932,1.259-47.99,6.993-65.521,17.043c-18.342,10.515-31.874,25.713-40.217,45.172l-0.287,0.655
			c-7.376,16.597-9.355,33.821-6.229,54.198c0.633,4.088,0.071,16.035-1.176,25.086l-0.333,2.377l-0.182,1.301l0.043,1.313
			l0.079,2.422l0.001,0.04l0.001,0.041c0.11,2.903,0.645,13.175,2.907,23.427c5.806,26.126,18.506,50.413,35.766,68.41
			c21.625,22.549,49.722,34.62,81.253,34.908l1.544,0.012l0.059,0.001h0.059c36.184,0,65.471-11.125,87.048-33.066
			c17.688-17.986,26.107-39.239,31.138-51.937l1.337-3.38c14.146-35.197,12.481-92.955,1.536-121.11
			c-4.399-11.316-13.469-27.75-31.69-41.778C271.748,101.549,242.865,92.996,207.811,92.996L207.811,92.996z"/>
	</g>
	<path stroke="#000000" stroke-width="25.1612" stroke-miterlimit="10" d="M126.098,241.412c0,0,3.271-23.466,1.085-37.649
		c-2.175-14.192-0.271-22.647,3.009-30.008c3.272-7.367,12.276-34.381,68.475-37.105c56.198-2.732,78.583,19.641,86.213,39.284
		c7.629,19.645,8.17,65.478-1.375,89.208c-9.529,23.737-21.547,61.661-80.465,61.106c-58.936-0.54-73.392-61.917-75.034-69.286
		C126.373,249.591,126.098,241.412,126.098,241.412z"/>
	<path fill="#FFFFFF" d="M176.917,151.045c0,0,1.757-8.807,8.955-9.245c7.188-0.443,14.807-0.443,15.397,11.875
		c0.588,12.327,0,16.873,0,16.873s0,5.723-8.367,6.159c-8.359,0.44-14.375,0.44-15.256-4.105
		c-0.873-4.546-1.166-16.576-0.729-20.972V151.045z"/>
	<path fill="#FFFFFF" d="M204.352,147.226c0,0,0.585-5.392,7.922-5.555c7.328-0.163,12.318-0.464,12.025,8.196
		c-0.293,8.653,2.201,22.004-4.105,24.94c-6.309,2.934-14.973,1.611-15.842,0C203.461,173.194,203.618,151.63,204.352,147.226z"/>
	<path fill="#FFFFFF" d="M226.651,148.402c0,0,2.053-3.819,6.594-4.107c4.555-0.301,12.613-0.587,12.918,6.895
		c0.283,7.482,1.02,13.2,0,15.544c-1.033,2.351-3.391,7.042-12.762,6.606c-9.395-0.443-6.611-9.247-6.75-11.886
		C226.5,158.807,226.651,148.402,226.651,148.402z"/>
	<path fill="#FFFFFF" d="M249.821,152.065c0,0,4.105-1.764,9.391,0c5.285,1.754,7.186,5.284,7.338,11.443
		c0.146,6.157-4.113,10.035-10.852,9.855c-6.758-0.169-6.902-5.011-7.051-8.533C248.504,161.308,248.204,153.973,249.821,152.065z"
		/>
	<path fill="#FFFFFF" d="M174.03,154.292c0,0-4.003-5.748-8.853-6.334c-4.837-0.591-10.265,0.445-10.265,8.95
		c0,8.507,0,15.404,0,15.404s-0.293,4.504,7.482,4.233c7.778-0.273,9.825-1.738,10.855-4.233c1.027-2.495,1.469-6.303,1.322-9.982
		C174.387,157.79,174.03,154.292,174.03,154.292z"/>
	<path fill="#FFFFFF" d="M150.357,155.438c0,0-9.818,1.764-11.285,8.654c-1.471,6.896,0,9.278,0,9.278s1.021,4.369,6.313,4.513
		c5.28,0.146,7.469-2.878,7.469-4.521s0-14.588,0-14.588S153.175,154.655,150.357,155.438z"/>
	<path fill="#FFFFFF" d="M133.309,211.962c0,0,25.462-20.738,55.817-14.577c17.725,3.596,23.775,5.979,25.738,7.331
		c1.395,0.973,1.365,0.704,2.578-0.348c4.059-3.489,14.539-10.752,29.244-8.126c19.113,3.413,36.279,15.08,39.855,32.892
		c0,0,3.906,13.287,0.441,24.649c-3.479,11.358-15.037,49.014-40.297,62.876c-25.266,13.869-61.918,10.904-74.915,2.382
		c-12.994-8.507-35.5-25.131-43.302-60.114c0,0-2.663-15.229-2.372-17.516c0.297-2.291,1.741-16.467,1.783-21.98l0.053-2.929
		L133.309,211.962z"/>
</g>
</svg>
